<svg width="323" height="323" viewBox="0 0 323 323" fill="none" xmlns="http://www.w3.org/2000/svg">
<g clip-path="url(#clip0)">
<path d="M322.925 300.091L297.549 160.285C297.296 158.89 296.43 157.681 295.19 156.992L231.32 121.468C230.492 121.006 229.562 120.823 228.649 120.893L240.269 270.791L239.88 270.965L316.318 305.257C316.94 305.535 317.601 305.672 318.259 305.672C319.3 305.672 320.332 305.33 321.181 304.665C322.567 303.583 323.238 301.821 322.925 300.091Z" fill="#44C868"/>
<path d="M161.5 155.428L96.178 121.405C95.3951 120.997 94.527 120.831 93.6722 120.888C93.8987 120.874 94.1264 120.875 94.3523 120.893L82.7324 270.791L159.559 305.257C160.179 305.535 160.841 305.673 161.5 305.673V155.428Z" fill="#44C868"/>
<path d="M94.3514 120.894C93.4386 120.823 92.5093 121.007 91.6804 121.468L27.8102 156.992C26.5699 157.681 25.7043 158.889 25.4514 160.285L0.0762569 300.091C-0.237912 301.821 0.433324 303.582 1.81932 304.666C2.66909 305.33 3.70055 305.673 4.74147 305.673C5.39946 305.673 6.06123 305.536 6.68263 305.257L82.7039 271.152L94.3514 120.894Z" fill="#4CE166"/>
<path d="M228.648 120.891C228.02 120.939 227.398 121.106 226.822 121.407L161.5 155.429V305.673C161.5 305.673 161.5 305.673 161.501 305.673C162.16 305.673 162.822 305.536 163.442 305.258L240.269 270.791L228.648 120.891Z" fill="#4CE166"/>
<path d="M17.7612 202.653L12.6064 231.054L88.9368 190.738L90.7089 167.876L91.0029 164.085L17.7612 202.653Z" fill="#FFDB56"/>
<path d="M89.6238 181.873L88.9368 190.738L12.6064 231.054L0.0762569 300.091C-0.237912 301.821 0.433324 303.582 1.81932 304.666C2.66909 305.33 3.70055 305.673 4.74147 305.673C5.39946 305.673 6.06123 305.536 6.68263 305.257L82.7039 271.152L89.6238 181.873Z" fill="#A8EEFC"/>
<path d="M161.519 174.168L91.0031 164.085L88.937 190.738L161.501 300.936V260.865L118.2 192.683L161.519 197.864V174.168Z" fill="#FFBB24"/>
<path d="M290.162 154.196L259.48 137.13L230.434 143.917L230.797 148.608L232.232 167.114L290.162 154.196Z" fill="#FFBB24"/>
<path d="M234.808 200.346L232.057 164.861L230.434 143.917L161.52 174.168V197.864L206.535 178.289L234.808 200.346Z" fill="#FFDB56"/>
<path d="M322.924 300.091L316.551 264.974L232.232 167.114L234.808 200.346L321.28 304.578C322.595 303.488 323.23 301.777 322.924 300.091Z" fill="#FFBB24"/>
<path d="M161.804 17.3267C125.237 17.3267 95.4878 47.0515 95.4878 83.5885C95.4878 106.19 106.218 130.455 127.382 155.71C142.925 174.259 158.258 186.189 158.903 186.688C159.757 187.349 160.781 187.679 161.804 187.679C162.828 187.679 163.852 187.349 164.706 186.688C165.351 186.189 180.684 174.259 196.227 155.71C217.391 130.455 228.121 106.19 228.121 83.5885C228.12 47.0515 198.37 17.3267 161.804 17.3267ZM186.363 83.5878C186.363 97.14 175.367 108.127 161.804 108.127C148.24 108.127 137.244 97.1406 137.244 83.5878C137.244 70.0351 148.24 59.0486 161.804 59.0486C175.367 59.0486 186.363 70.0357 186.363 83.5878Z" fill="#FF4A4A"/>
<path d="M161.804 17.3267C158.906 17.3267 156.051 17.5147 153.25 17.8768C185.792 22.0827 211.013 49.9472 211.013 83.5885C211.013 106.19 200.283 130.455 179.119 155.71C169.123 167.638 159.222 176.823 153.251 181.997C156.565 184.869 158.674 186.51 158.903 186.688C159.757 187.349 160.781 187.679 161.804 187.679C162.828 187.679 163.852 187.349 164.706 186.688C165.351 186.189 180.684 174.259 196.227 155.71C217.391 130.455 228.121 106.19 228.121 83.5885C228.12 47.0515 198.37 17.3267 161.804 17.3267Z" fill="#E7343F"/>
<path d="M163.442 305.257L192.011 292.44L161.5 260.865V305.673C161.5 305.673 161.5 305.673 161.501 305.673C162.16 305.673 162.822 305.536 163.442 305.257Z" fill="#FFDB56"/>
<path d="M297.548 160.285C297.295 158.89 296.429 157.681 295.189 156.992L290.161 154.195L232.231 167.113L316.549 264.973L297.548 160.285Z" fill="#1EA4E9"/>
<path d="M161.5 305.673C161.5 305.673 161.5 305.673 161.5 305.673V300.936L88.9367 190.738L82.731 270.791L159.558 305.258C160.178 305.536 160.84 305.673 161.5 305.673Z" fill="#1EA4E9"/>
</g>
<defs>
<clipPath id="clip0">
<rect width="323" height="323" fill="white"/>
</clipPath>
</defs>
</svg>
